ffmpeg started on 2025-06-04 at 21:17:10
Report written to "D:\Convert\FFMetrics\reports\ssim_report-6.txt"
Log level: 32
Command line:
ffmpeg -hide_banner -nostdin -i "G:\\\xc0\xed\xe8\xec\xe5\\\xce\xed\xe3\xee\xe8\xed\xe3\xe8\\!_36_\xce\xf1\xe5\xed\xfc_2024\\DreamCast\\\xc5\xf1\xeb\xe8 \xe1\xfb \xec\xee\xff \xe6\xe5\xed\xe0 \xf1\xf2\xe0\xeb\xe0 \xec\xeb\xe0\xe4\xf8\xe5\xea\xeb\xe0\xf1\xf1\xed\xe8\xf6\xe5\xe9\\[DC] Tsuma Shougakusei ni Naru - 04_Telegram_HEVC.mkv" -i "G:\\\xc0\xed\xe8\xec\xe5\\\xce\xed\xe3\xee\xe8\xed\xe3\xe8\\!_36_\xce\xf1\xe5\xed\xfc_2024\\DreamCast\\\xc5\xf1\xeb\xe8 \xe1\xfb \xec\xee\xff \xe6\xe5\xed\xe0 \xf1\xf2\xe0\xeb\xe0 \xec\xeb\xe0\xe4\xf8\xe5\xea\xeb\xe0\xf1\xf1\xed\xe8\xf6\xe5\xe9\\[DC] Tsuma Shougakusei ni Naru - 04_Telegram.mp4" -lavfi "[0:v]settb=AVTB,setpts=PTS-STARTPTS,format=pix_fmts=yuv420p10,fps=24000/1001,scale=1920:1080:flags=bicubic[main];[1:v]settb=AVTB,setpts=PTS-STARTPTS,format=pix_fmts=yuv420p,fps=24000/1001,scale=1920:1080:flags=bicubic[ref];[main][ref]ssim=eof_action=endall:stats_file='D\\:/Convert/FFMetrics/logs/ssim_logfile-6.txt'" -f null -
Input #0, matroska,webm, from 'G:\Аниме\Онгоинги\!_36_Осень_2024\DreamCast\Если бы моя жена стала младшеклассницей\[DC] Tsuma Shougakusei ni Naru - 04_Telegram_HEVC.mkv':
  Metadata:
    COMPATIBLE_BRANDS: isomiso2avc1mp41
    MAJOR_BRAND     : isom
    MINOR_VERSION   : 512
    ENCODER         : Lavf61.7.100
  Duration: 00:23:46.65, start: -0.021000, bitrate: 892 kb/s
  Stream #0:0: Video: hevc (Main 10), yuv420p10le(tv, bt709, progressive), 1920x1080 [SAR 1:1 DAR 16:9], 23.98 fps, 23.98 tbr, 1k tbn (default)
      Metadata:
        HANDLER_NAME    : VideoHandler
        VENDOR_ID       : [0][0][0][0]
        ENCODER         : Lavc61.19.100 libx265
        BPS             : 695363
        DURATION        : 00:23:46.549708333
        NUMBER_OF_FRAMES: 34203
        NUMBER_OF_BYTES : 123996241
        _STATISTICS_WRITING_APP: mkvpropedit v66.0.0 ('Josie') 64-bit
        _STATISTICS_WRITING_DATE_UTC: 2025-05-30 14:57:02
        _STATISTICS_TAGS: BPS DURATION NUMBER_OF_FRAMES NUMBER_OF_BYTES
  Stream #0:1: Audio: aac (LC), 48000 Hz, stereo, fltp (default)
      Metadata:
        HANDLER_NAME    : SoundHandler
        VENDOR_ID       : [0][0][0][0]
        ENCODER         : Lavc61.19.100 aac
        BPS             : 193005
        DURATION        : 00:23:46.645000000
        NUMBER_OF_FRAMES: 66875
        NUMBER_OF_BYTES : 34418855
        _STATISTICS_WRITING_APP: mkvpropedit v66.0.0 ('Josie') 64-bit
        _STATISTICS_WRITING_DATE_UTC: 2025-05-30 14:57:02
        _STATISTICS_TAGS: BPS DURATION NUMBER_OF_FRAMES NUMBER_OF_BYTES
Input #1, mov,mp4,m4a,3gp,3g2,mj2, from 'G:\Аниме\Онгоинги\!_36_Осень_2024\DreamCast\Если бы моя жена стала младшеклассницей\[DC] Tsuma Shougakusei ni Naru - 04_Telegram.mp4':
  Metadata:
    major_brand     : isom
    minor_version   : 512
    compatible_brands: isomiso2avc1mp41
    encoder         : Lavf61.1.100
  Duration: 00:23:46.62, start: 0.000000, bitrate: 3319 kb/s
  Stream #1:0[0x1](und): Video: h264 (High) (avc1 / 0x31637661), yuv420p(tv, bt709, progressive), 1920x1080 [SAR 1:1 DAR 16:9], 3172 kb/s, 23.98 fps, 23.98 tbr, 24k tbn (default)
      Metadata:
        handler_name    : VideoHandler
        vendor_id       : [0][0][0][0]
        encoder         : Lavc61.3.100 h264_qsv
  Stream #1:1[0x2](und): Audio: aac (HE-AACv2) (mp4a / 0x6134706D), 48000 Hz, stereo, fltp, 144 kb/s (default)
      Metadata:
        handler_name    : SoundHandler
        vendor_id       : [0][0][0][0]
Stream mapping:
  Stream #0:0 (hevc) -> settb:default
  Stream #1:0 (h264) -> settb:default
  ssim:default -> Stream #0:0 (wrapped_avframe)
  Stream #0:1 -> #0:1 (aac (native) -> pcm_s16le (native))
Output #0, null, to 'pipe:':
  Metadata:
    COMPATIBLE_BRANDS: isomiso2avc1mp41
    MAJOR_BRAND     : isom
    MINOR_VERSION   : 512
    encoder         : Lavf61.7.100
  Stream #0:0: Video: wrapped_avframe, yuv420p10le(tv, bt709, progressive), 1920x1080 [SAR 1:1 DAR 16:9], q=2-31, 200 kb/s, 23.98 fps, 23.98 tbn
      Metadata:
        encoder         : Lavc61.19.100 wrapped_avframe
  Stream #0:1: Audio: pcm_s16le, 48000 Hz, stereo, s16, 1536 kb/s (default)
      Metadata:
        HANDLER_NAME    : SoundHandler
        VENDOR_ID       : [0][0][0][0]
        _STATISTICS_TAGS: BPS DURATION NUMBER_OF_FRAMES NUMBER_OF_BYTES
        BPS             : 193005
        DURATION        : 00:23:46.645000000
        NUMBER_OF_FRAMES: 66875
        NUMBER_OF_BYTES : 34418855
        _STATISTICS_WRITING_APP: mkvpropedit v66.0.0 ('Josie') 64-bit
        _STATISTICS_WRITING_DATE_UTC: 2025-05-30 14:57:02
        encoder         : Lavc61.19.100 pcm_s16le
frame=  176 fps=0.0 q=-0.0 size=N/A time=00:00:07.34 bitrate=N/A speed=14.4x    frame=  420 fps=409 q=-0.0 size=N/A time=00:00:17.51 bitrate=N/A speed=  17x    frame=  655 fps=425 q=-0.0 size=N/A time=00:00:27.31 bitrate=N/A speed=17.7x    frame=  928 fps=450 q=-0.0 size=N/A time=00:00:38.70 bitrate=N/A speed=18.8x    frame= 1200 fps=464 q=-0.0 size=N/A time=00:00:50.05 bitrate=N/A speed=19.4x    frame= 1472 fps=475 q=-0.0 size=N/A time=00:01:01.39 bitrate=N/A speed=19.8x    frame= 1761 fps=486 q=-0.0 size=N/A time=00:01:13.44 bitrate=N/A speed=20.3x    frame= 1941 fps=470 q=-0.0 size=N/A time=00:01:20.95 bitrate=N/A speed=19.6x    frame= 2090 fps=449 q=-0.0 size=N/A time=00:01:27.17 bitrate=N/A speed=18.7x    frame= 2234 fps=433 q=-0.0 size=N/A time=00:01:33.17 bitrate=N/A speed=18.1x    frame= 2421 fps=426 q=-0.0 size=N/A time=00:01:40.97 bitrate=N/A speed=17.8x    frame= 2665 fps=431 q=-0.0 size=N/A time=00:01:51.15 bitrate=N/A speed=  18x    frame= 2890 fps=431 q=-0.0 size=N/A time=00:02:00.53 bitrate=N/A speed=  18x    frame= 3067 fps=424 q=-0.0 size=N/A time=00:02:07.91 bitrate=N/A speed=17.7x    frame= 3241 fps=419 q=-0.0 size=N/A time=00:02:15.17 bitrate=N/A speed=17.5x    frame= 3456 fps=418 q=-0.0 size=N/A time=00:02:24.14 bitrate=N/A speed=17.4x    frame= 3609 fps=411 q=-0.0 size=N/A time=00:02:30.52 bitrate=N/A speed=17.2x    frame= 3758 fps=404 q=-0.0 size=N/A time=00:02:36.73 bitrate=N/A speed=16.9x    frame= 3949 fps=403 q=-0.0 size=N/A time=00:02:44.70 bitrate=N/A speed=16.8x    frame= 4184 fps=405 q=-0.0 size=N/A time=00:02:54.50 bitrate=N/A speed=16.9x    frame= 4426 fps=409 q=-0.0 size=N/A time=00:03:04.60 bitrate=N/A speed=  17x    frame= 4665 fps=411 q=-0.0 size=N/A time=00:03:14.56 bitrate=N/A speed=17.1x    frame= 4931 fps=415 q=-0.0 size=N/A time=00:03:25.66 bitrate=N/A speed=17.3x    frame= 5197 fps=420 q=-0.0 size=N/A time=00:03:36.75 bitrate=N/A speed=17.5x    frame= 5461 fps=424 q=-0.0 size=N/A time=00:03:47.76 bitrate=N/A speed=17.7x    frame= 5745 fps=428 q=-0.0 size=N/A time=00:03:59.61 bitrate=N/A speed=17.9x    frame= 5978 fps=429 q=-0.0 size=N/A time=00:04:09.33 bitrate=N/A speed=17.9x    frame= 6221 fps=430 q=-0.0 size=N/A time=00:04:19.46 bitrate=N/A speed=  18x    frame= 6432 fps=430 q=-0.0 size=N/A time=00:04:28.26 bitrate=N/A speed=17.9x    frame= 6688 fps=432 q=-0.0 size=N/A time=00:04:38.94 bitrate=N/A speed=  18x    frame= 6953 fps=435 q=-0.0 size=N/A time=00:04:49.99 bitrate=N/A speed=18.1x    frame= 7204 fps=437 q=-0.0 size=N/A time=00:05:00.46 bitrate=N/A speed=18.2x    frame= 7467 fps=439 q=-0.0 size=N/A time=00:05:11.43 bitrate=N/A speed=18.3x    frame= 7709 fps=440 q=-0.0 size=N/A time=00:05:21.52 bitrate=N/A speed=18.3x    frame= 7971 fps=442 q=-0.0 size=N/A time=00:05:32.45 bitrate=N/A speed=18.4x    frame= 8226 fps=443 q=-0.0 size=N/A time=00:05:43.09 bitrate=N/A speed=18.5x    frame= 8490 fps=445 q=-0.0 size=N/A time=00:05:54.10 bitrate=N/A speed=18.6x    frame= 8772 fps=447 q=-0.0 size=N/A time=00:06:05.86 bitrate=N/A speed=18.7x    frame= 9002 fps=448 q=-0.0 size=N/A time=00:06:15.45 bitrate=N/A speed=18.7x    frame= 9255 fps=448 q=-0.0 size=N/A time=00:06:26.01 bitrate=N/A speed=18.7x    frame= 9513 fps=450 q=-0.0 size=N/A time=00:06:36.77 bitrate=N/A speed=18.8x    frame= 9774 fps=451 q=-0.0 size=N/A time=00:06:47.65 bitrate=N/A speed=18.8x    frame=10019 fps=452 q=-0.0 size=N/A time=00:06:57.87 bitrate=N/A speed=18.8x    frame=10301 fps=454 q=-0.0 size=N/A time=00:07:09.63 bitrate=N/A speed=18.9x    frame=10571 fps=456 q=-0.0 size=N/A time=00:07:20.89 bitrate=N/A speed=  19x    frame=10828 fps=456 q=-0.0 size=N/A time=00:07:31.61 bitrate=N/A speed=  19x    frame=11047 fps=456 q=-0.0 size=N/A time=00:07:40.75 bitrate=N/A speed=  19x    frame=11324 fps=457 q=-0.0 size=N/A time=00:07:52.30 bitrate=N/A speed=19.1x    frame=11604 fps=459 q=-0.0 size=N/A time=00:08:03.98 bitrate=N/A speed=19.2x    frame=11882 fps=461 q=-0.0 size=N/A time=00:08:15.57 bitrate=N/A speed=19.2x    frame=12149 fps=462 q=-0.0 size=N/A time=00:08:26.71 bitrate=N/A speed=19.3x    frame=12414 fps=463 q=-0.0 size=N/A time=00:08:37.76 bitrate=N/A speed=19.3x    frame=12688 fps=464 q=-0.0 size=N/A time=00:08:49.19 bitrate=N/A speed=19.4x    frame=12955 fps=465 q=-0.0 size=N/A time=00:09:00.33 bitrate=N/A speed=19.4x    frame=13233 fps=466 q=-0.0 size=N/A time=00:09:11.92 bitrate=N/A speed=19.5x    frame=13479 fps=467 q=-0.0 size=N/A time=00:09:22.18 bitrate=N/A speed=19.5x    frame=13751 fps=468 q=-0.0 size=N/A time=00:09:33.53 bitrate=N/A speed=19.5x    frame=14039 fps=469 q=-0.0 size=N/A time=00:09:45.54 bitrate=N/A speed=19.6x    frame=14311 fps=470 q=-0.0 size=N/A time=00:09:56.88 bitrate=N/A speed=19.6x    frame=14588 fps=472 q=-0.0 size=N/A time=00:10:08.44 bitrate=N/A speed=19.7x    frame=14876 fps=473 q=-0.0 size=N/A time=00:10:20.45 bitrate=N/A speed=19.7x    frame=15173 fps=474 q=-0.0 size=N/A time=00:10:32.84 bitrate=N/A speed=19.8x    frame=15449 fps=475 q=-0.0 size=N/A time=00:10:44.35 bitrate=N/A speed=19.8x    frame=15721 fps=476 q=-0.0 size=N/A time=00:10:55.69 bitrate=N/A speed=19.9x    frame=15983 fps=477 q=-0.0 size=N/A time=00:11:06.66 bitrate=N/A speed=19.9x    frame=16219 fps=477 q=-0.0 size=N/A time=00:11:16.46 bitrate=N/A speed=19.9x    frame=16487 fps=477 q=-0.0 size=N/A time=00:11:27.64 bitrate=N/A speed=19.9x    frame=16766 fps=478 q=-0.0 size=N/A time=00:11:39.28 bitrate=N/A speed=19.9x    frame=17034 fps=479 q=-0.0 size=N/A time=00:11:50.45 bitrate=N/A speed=  20x    frame=17243 fps=478 q=-0.0 size=N/A time=00:11:59.17 bitrate=N/A speed=19.9x    frame=17443 fps=476 q=-0.0 size=N/A time=00:12:07.51 bitrate=N/A speed=19.9x    frame=17664 fps=476 q=-0.0 size=N/A time=00:12:16.73 bitrate=N/A speed=19.8x    frame=17923 fps=476 q=-0.0 size=N/A time=00:12:27.53 bitrate=N/A speed=19.9x    frame=18188 fps=477 q=-0.0 size=N/A time=00:12:38.59 bitrate=N/A speed=19.9x    frame=18461 fps=477 q=-0.0 size=N/A time=00:12:49.97 bitrate=N/A speed=19.9x    frame=18733 fps=478 q=-0.0 size=N/A time=00:13:01.32 bitrate=N/A speed=19.9x    frame=19006 fps=479 q=-0.0 size=N/A time=00:13:12.70 bitrate=N/A speed=  20x    frame=19271 fps=479 q=-0.0 size=N/A time=00:13:23.76 bitrate=N/A speed=  20x    frame=19538 fps=479 q=-0.0 size=N/A time=00:13:34.89 bitrate=N/A speed=  20x    frame=19799 fps=480 q=-0.0 size=N/A time=00:13:45.78 bitrate=N/A speed=  20x    frame=20081 fps=481 q=-0.0 size=N/A time=00:13:57.54 bitrate=N/A speed=  20x    frame=20335 fps=481 q=-0.0 size=N/A time=00:14:08.13 bitrate=N/A speed=20.1x    frame=20609 fps=481 q=-0.0 size=N/A time=00:14:19.56 bitrate=N/A speed=20.1x    frame=20884 fps=482 q=-0.0 size=N/A time=00:14:31.03 bitrate=N/A speed=20.1x    frame=21176 fps=483 q=-0.0 size=N/A time=00:14:43.21 bitrate=N/A speed=20.1x    frame=21430 fps=483 q=-0.0 size=N/A time=00:14:53.80 bitrate=N/A speed=20.2x    frame=21695 fps=484 q=-0.0 size=N/A time=00:15:04.86 bitrate=N/A speed=20.2x    frame=21978 fps=484 q=-0.0 size=N/A time=00:15:16.66 bitrate=N/A speed=20.2x    frame=22244 fps=485 q=-0.0 size=N/A time=00:15:27.76 bitrate=N/A speed=20.2x    frame=22500 fps=485 q=-0.0 size=N/A time=00:15:38.43 bitrate=N/A speed=20.2x    frame=22762 fps=485 q=-0.0 size=N/A time=00:15:49.36 bitrate=N/A speed=20.2x    frame=23032 fps=485 q=-0.0 size=N/A time=00:16:00.62 bitrate=N/A speed=20.2x    frame=23297 fps=486 q=-0.0 size=N/A time=00:16:11.67 bitrate=N/A speed=20.3x    frame=23572 fps=486 q=-0.0 size=N/A time=00:16:23.14 bitrate=N/A speed=20.3x    frame=23843 fps=487 q=-0.0 size=N/A time=00:16:34.45 bitrate=N/A speed=20.3x    frame=24120 fps=487 q=-0.0 size=N/A time=00:16:46.00 bitrate=N/A speed=20.3x    frame=24395 fps=488 q=-0.0 size=N/A time=00:16:57.47 bitrate=N/A speed=20.3x    frame=24663 fps=488 q=-0.0 size=N/A time=00:17:08.65 bitrate=N/A speed=20.4x    frame=24951 fps=489 q=-0.0 size=N/A time=00:17:20.66 bitrate=N/A speed=20.4x    frame=25218 fps=489 q=-0.0 size=N/A time=00:17:31.80 bitrate=N/A speed=20.4x    frame=25472 fps=489 q=-0.0 size=N/A time=00:17:42.39 bitrate=N/A speed=20.4x    frame=25724 fps=489 q=-0.0 size=N/A time=00:17:52.90 bitrate=N/A speed=20.4x    frame=26007 fps=490 q=-0.0 size=N/A time=00:18:04.70 bitrate=N/A speed=20.4x    frame=26305 fps=490 q=-0.0 size=N/A time=00:18:17.13 bitrate=N/A speed=20.5x    frame=26557 fps=490 q=-0.0 size=N/A time=00:18:27.64 bitrate=N/A speed=20.5x    frame=26840 fps=491 q=-0.0 size=N/A time=00:18:39.45 bitrate=N/A speed=20.5x    frame=27123 fps=491 q=-0.0 size=N/A time=00:18:51.25 bitrate=N/A speed=20.5x    frame=27403 fps=492 q=-0.0 size=N/A time=00:19:02.93 bitrate=N/A speed=20.5x    frame=27682 fps=492 q=-0.0 size=N/A time=00:19:14.57 bitrate=N/A speed=20.5x    frame=27965 fps=493 q=-0.0 size=N/A time=00:19:26.37 bitrate=N/A speed=20.6x    frame=28245 fps=493 q=-0.0 size=N/A time=00:19:38.05 bitrate=N/A speed=20.6x    frame=28518 fps=494 q=-0.0 size=N/A time=00:19:49.43 bitrate=N/A speed=20.6x    frame=28770 fps=494 q=-0.0 size=N/A time=00:19:59.94 bitrate=N/A speed=20.6x    frame=29004 fps=493 q=-0.0 size=N/A time=00:20:09.70 bitrate=N/A speed=20.6x    frame=29281 fps=494 q=-0.0 size=N/A time=00:20:21.26 bitrate=N/A speed=20.6x    frame=29566 fps=494 q=-0.0 size=N/A time=00:20:33.14 bitrate=N/A speed=20.6x    frame=29853 fps=495 q=-0.0 size=N/A time=00:20:45.11 bitrate=N/A speed=20.6x    frame=30127 fps=495 q=-0.0 size=N/A time=00:20:56.54 bitrate=N/A speed=20.6x    frame=30385 fps=495 q=-0.0 size=N/A time=00:21:07.30 bitrate=N/A speed=20.6x    frame=30656 fps=495 q=-0.0 size=N/A time=00:21:18.61 bitrate=N/A speed=20.7x    frame=30938 fps=496 q=-0.0 size=N/A time=00:21:30.37 bitrate=N/A speed=20.7x    frame=31202 fps=496 q=-0.0 size=N/A time=00:21:41.38 bitrate=N/A speed=20.7x    frame=31486 fps=496 q=-0.0 size=N/A time=00:21:53.22 bitrate=N/A speed=20.7x    frame=31762 fps=497 q=-0.0 size=N/A time=00:22:04.74 bitrate=N/A speed=20.7x    frame=31996 fps=496 q=-0.0 size=N/A time=00:22:14.49 bitrate=N/A speed=20.7x    frame=32235 fps=496 q=-0.0 size=N/A time=00:22:24.46 bitrate=N/A speed=20.7x    frame=32464 fps=496 q=-0.0 size=N/A time=00:22:34.01 bitrate=N/A speed=20.7x    frame=32703 fps=495 q=-0.0 size=N/A time=00:22:43.98 bitrate=N/A speed=20.7x    frame=32941 fps=495 q=-0.0 size=N/A time=00:22:53.91 bitrate=N/A speed=20.6x    frame=33184 fps=495 q=-0.0 size=N/A time=00:23:04.04 bitrate=N/A speed=20.6x    frame=33343 fps=493 q=-0.0 size=N/A time=00:23:10.68 bitrate=N/A speed=20.6x    frame=33497 fps=492 q=-0.0 size=N/A time=00:23:17.10 bitrate=N/A speed=20.5x    frame=33646 fps=490 q=-0.0 size=N/A time=00:23:23.31 bitrate=N/A speed=20.5x    frame=33815 fps=489 q=-0.0 size=N/A time=00:23:30.36 bitrate=N/A speed=20.4x    frame=34020 fps=489 q=-0.0 size=N/A time=00:23:38.91 bitrate=N/A speed=20.4x    [Parsed_ssim_10 @ 0000018264c80640] SSIM Y:0.995428 (23.398950) U:0.994649 (22.715427) V:0.994820 (22.857080) All:0.995197 (23.184758)
[out#0/null @ 0000018263ad4100] video:14697KiB audio:267500KiB subtitle:0KiB other streams:0KiB global headers:0KiB muxing overhead: unknown
frame=34203 fps=489 q=-0.0 Lsize=N/A time=00:23:46.55 bitrate=N/A speed=20.4x    
